<svg width="22" height="22" viewBox="0 0 22 22" fill="none" xmlns="http://www.w3.org/2000/svg">
<g clip-path="url(#clip0_2104_947)">
<path d="M17.418 19.2493H4.58464C4.34152 19.2493 4.10836 19.1527 3.93645 18.9808C3.76455 18.8089 3.66797 18.5757 3.66797 18.3326V10.0826H0.917969L10.3844 1.47694C10.5532 1.32338 10.7731 1.23828 11.0013 1.23828C11.2295 1.23828 11.4495 1.32338 11.6182 1.47694L21.0846 10.0826H18.3346V18.3326C18.3346 18.5757 18.2381 18.8089 18.0662 18.9808C17.8942 19.1527 17.6611 19.2493 17.418 19.2493ZM5.5013 17.4159H16.5013V8.39319L11.0013 3.39369L5.5013 8.39319V17.4159ZM11.0013 13.7493C10.3935 13.7493 9.81062 13.5078 9.38085 13.0781C8.95108 12.6483 8.70964 12.0654 8.70964 11.4576C8.70964 10.8498 8.95108 10.2669 9.38085 9.83716C9.81062 9.40739 10.3935 9.16594 11.0013 9.16594C11.6091 9.16594 12.192 9.40739 12.6218 9.83716C13.0515 10.2669 13.293 10.8498 13.293 11.4576C13.293 12.0654 13.0515 12.6483 12.6218 13.0781C12.192 13.5078 11.6091 13.7493 11.0013 13.7493Z" fill="#959595"/>
</g>
<defs>
<clipPath id="clip0_2104_947">
<rect width="22" height="22" fill="white"/>
</clipPath>
</defs>
</svg>
