<svg width="22" height="22" viewBox="0 0 22 22" fill="none" xmlns="http://www.w3.org/2000/svg">
<g clip-path="url(#clip0_2104_941)">
<path d="M5.74162 3.48845L6.79303 4.99086C5.51537 5.88532 4.55614 7.16383 4.05471 8.64066C3.55328 10.1175 3.53575 11.7157 4.00467 13.2032C4.4736 14.6907 5.40455 15.9899 6.66229 16.9122C7.92004 17.8345 9.43906 18.3317 10.9987 18.3317C12.5583 18.3317 14.0774 17.8345 15.3351 16.9122C16.5929 15.9899 17.5238 14.6907 17.9927 13.2032C18.4617 11.7157 18.4441 10.1175 17.9427 8.64066C17.4413 7.16383 16.482 5.88532 15.2044 4.99086L16.2558 3.48845C17.4639 4.33309 18.4502 5.45695 19.1309 6.76449C19.8115 8.07204 20.1664 9.5246 20.1654 10.9987C20.1654 16.0614 16.0615 20.1654 10.9987 20.1654C5.93595 20.1654 1.83203 16.0614 1.83203 10.9987C1.83097 9.5246 2.18586 8.07204 2.86652 6.76449C3.54718 5.45695 4.5335 4.33309 5.74162 3.48845ZM10.082 10.9987V1.83203H11.9154V10.9987H10.082Z" fill="#ED5B75"/>
</g>
<defs>
<clipPath id="clip0_2104_941">
<rect width="22" height="22" fill="white"/>
</clipPath>
</defs>
</svg>
