<svg width="22" height="22" viewBox="0 0 22 22" fill="none" xmlns="http://www.w3.org/2000/svg">
<g opacity="0.8">
<g clip-path="url(#clip0_2104_957)">
<path d="M18.332 15.582H20.1654V17.4154H1.83203V15.582H3.66536V9.16536C3.66536 7.22044 4.43798 5.35518 5.81325 3.97991C7.18851 2.60465 9.05378 1.83203 10.9987 1.83203C12.9436 1.83203 14.8089 2.60465 16.1841 3.97991C17.5594 5.35518 18.332 7.22044 18.332 9.16536V15.582ZM16.4987 15.582V9.16536C16.4987 7.70667 15.9192 6.30773 14.8878 5.27628C13.8563 4.24483 12.4574 3.66536 10.9987 3.66536C9.54001 3.66536 8.14106 4.24483 7.10961 5.27628C6.07816 6.30773 5.4987 7.70667 5.4987 9.16536V15.582H16.4987ZM8.2487 19.2487H13.7487V21.082H8.2487V19.2487Z" fill="#959595"/>
</g>
</g>
<defs>
<clipPath id="clip0_2104_957">
<rect width="22" height="22" fill="white"/>
</clipPath>
</defs>
</svg>
