<svg width="22" height="22" viewBox="0 0 22 22" fill="none" xmlns="http://www.w3.org/2000/svg">
<g opacity="0.8" clip-path="url(#clip0_2104_952)">
<path d="M3.06056 15.5837C2.67306 14.9136 2.37184 14.1972 2.16406 13.4515C2.61626 13.2215 2.99602 12.8709 3.26134 12.4385C3.52665 12.0061 3.66718 11.5087 3.66737 11.0013C3.66756 10.494 3.52741 9.99653 3.26241 9.56391C2.99742 9.13129 2.61792 8.78041 2.1659 8.55008C2.58026 7.05177 3.36923 5.68361 4.45848 4.57449C4.8839 4.85107 5.37755 5.00456 5.88479 5.01796C6.39204 5.03136 6.8931 4.90415 7.33253 4.65042C7.77196 4.39669 8.13262 4.02632 8.3746 3.58031C8.61657 3.1343 8.73043 2.63004 8.70356 2.12333C10.2088 1.73431 11.7884 1.73494 13.2933 2.12516C13.2667 2.63186 13.3808 3.13605 13.6229 3.58193C13.8651 4.02782 14.2259 4.39801 14.6654 4.65155C15.1049 4.90509 15.606 5.03208 16.1132 5.01848C16.6204 5.00488 17.114 4.85122 17.5393 4.57449C18.0701 5.11533 18.5412 5.73041 18.9372 6.41699C19.3341 7.10358 19.6311 7.81949 19.8337 8.54916C19.3815 8.77915 19.0018 9.12975 18.7365 9.56217C18.4711 9.99459 18.3306 10.492 18.3304 10.9993C18.3302 11.5066 18.4704 12.0041 18.7354 12.4367C19.0004 12.8694 19.3799 13.2202 19.8319 13.4506C19.4175 14.9489 18.6286 16.317 17.5393 17.4262C17.1139 17.1496 16.6202 16.9961 16.113 16.9827C15.6058 16.9693 15.1047 17.0965 14.6653 17.3502C14.2258 17.604 13.8652 17.9743 13.6232 18.4203C13.3812 18.8663 13.2674 19.3706 13.2942 19.8773C11.789 20.2663 10.2094 20.2657 8.70448 19.8755C8.73111 19.3688 8.61703 18.8646 8.37486 18.4187C8.1327 17.9728 7.7719 17.6026 7.33239 17.3491C6.89287 17.0956 6.39178 16.9686 5.88456 16.9822C5.37734 16.9958 4.88378 17.1494 4.45848 17.4262C3.91672 16.8734 3.44702 16.2543 3.06056 15.5837ZM8.2489 15.7633C9.22572 16.3267 9.96017 17.2309 10.3114 18.3025C10.7688 18.3456 11.2281 18.3465 11.6855 18.3034C12.0369 17.2317 12.7717 16.3275 13.7489 15.7642C14.7253 15.1993 15.876 15.0148 16.9801 15.2463C17.246 14.8723 17.4751 14.4736 17.6658 14.0565C16.9136 13.2163 16.4981 12.128 16.4989 11.0003C16.4989 9.84533 16.9297 8.76641 17.6658 7.94416C17.4738 7.52721 17.2437 7.12891 16.9783 6.75433C15.8749 6.98561 14.725 6.80151 13.7489 6.23733C12.7721 5.67392 12.0376 4.76973 11.6864 3.69816C11.229 3.65508 10.7697 3.65416 10.3123 3.69724C9.96086 4.76896 9.22607 5.67317 8.2489 6.23641C7.27245 6.80136 6.12175 6.9858 5.01765 6.75433C4.75233 7.12859 4.52277 7.52695 4.33198 7.94416C5.08417 8.78434 5.49971 9.87263 5.4989 11.0003C5.4989 12.1553 5.06806 13.2342 4.33198 14.0565C4.52399 14.4734 4.75414 14.8717 5.01948 15.2463C6.12289 15.015 7.27284 15.1991 8.2489 15.7633ZM10.9989 13.7503C10.2696 13.7503 9.57008 13.4606 9.05435 12.9449C8.53863 12.4291 8.2489 11.7297 8.2489 11.0003C8.2489 10.271 8.53863 9.57151 9.05435 9.05578C9.57008 8.54006 10.2696 8.25033 10.9989 8.25033C11.7282 8.25033 12.4277 8.54006 12.9434 9.05578C13.4592 9.57151 13.7489 10.271 13.7489 11.0003C13.7489 11.7297 13.4592 12.4291 12.9434 12.9449C12.4277 13.4606 11.7282 13.7503 10.9989 13.7503ZM10.9989 11.917C11.242 11.917 11.4752 11.8204 11.6471 11.6485C11.819 11.4766 11.9156 11.2434 11.9156 11.0003C11.9156 10.7572 11.819 10.5241 11.6471 10.3521C11.4752 10.1802 11.242 10.0837 10.9989 10.0837C10.7558 10.0837 10.5226 10.1802 10.3507 10.3521C10.1788 10.5241 10.0822 10.7572 10.0822 11.0003C10.0822 11.2434 10.1788 11.4766 10.3507 11.6485C10.5226 11.8204 10.7558 11.917 10.9989 11.917Z" fill="#959595"/>
</g>
<defs>
<clipPath id="clip0_2104_952">
<rect width="22" height="22" fill="white"/>
</clipPath>
</defs>
</svg>
