<svg width="183" height="23" viewBox="0 0 183 23" fill="none" xmlns="http://www.w3.org/2000/svg">
<path d="M8.25 8.33333H6V11.5H8.25V21H12V11.5H14.7L15 8.33333H12V6.9875C12 6.275 12.15 5.95833 12.825 5.95833H15V2H12.15C9.45 2 8.25 3.26667 8.25 5.64167V8.33333Z" fill="#4871FD"/>
<path d="M39.9825 9.1275C39.9225 9.2325 39.8575 9.31 39.7875 9.36C39.7225 9.405 39.64 9.4275 39.54 9.4275C39.435 9.4275 39.32 9.39 39.195 9.315C39.075 9.235 38.93 9.1475 38.76 9.0525C38.59 8.9575 38.39 8.8725 38.16 8.7975C37.935 8.7175 37.6675 8.6775 37.3575 8.6775C37.0775 8.6775 36.8325 8.7125 36.6225 8.7825C36.4125 8.8475 36.235 8.94 36.09 9.06C35.95 9.18 35.845 9.325 35.775 9.495C35.705 9.66 35.67 9.8425 35.67 10.0425C35.67 10.2975 35.74 10.51 35.88 10.68C36.025 10.85 36.215 10.995 36.45 11.115C36.685 11.235 36.9525 11.3425 37.2525 11.4375C37.5525 11.5325 37.86 11.635 38.175 11.745C38.49 11.85 38.7975 11.975 39.0975 12.12C39.3975 12.26 39.665 12.44 39.9 12.66C40.135 12.875 40.3225 13.14 40.4625 13.455C40.6075 13.77 40.68 14.1525 40.68 14.6025C40.68 15.0925 40.595 15.5525 40.425 15.9825C40.26 16.4075 40.015 16.78 39.69 17.1C39.37 17.415 38.9775 17.665 38.5125 17.85C38.0475 18.03 37.515 18.12 36.915 18.12C36.57 18.12 36.23 18.085 35.895 18.015C35.56 17.95 35.2375 17.855 34.9275 17.73C34.6225 17.605 34.335 17.455 34.065 17.28C33.795 17.105 33.555 16.91 33.345 16.695L33.9375 15.7275C33.9875 15.6575 34.0525 15.6 34.1325 15.555C34.2125 15.505 34.2975 15.48 34.3875 15.48C34.5125 15.48 34.6475 15.5325 34.7925 15.6375C34.9375 15.7375 35.11 15.85 35.31 15.975C35.51 16.1 35.7425 16.215 36.0075 16.32C36.2775 16.42 36.6 16.47 36.975 16.47C37.55 16.47 37.995 16.335 38.31 16.065C38.625 15.79 38.7825 15.3975 38.7825 14.8875C38.7825 14.6025 38.71 14.37 38.565 14.19C38.425 14.01 38.2375 13.86 38.0025 13.74C37.7675 13.615 37.5 13.51 37.2 13.425C36.9 13.34 36.595 13.2475 36.285 13.1475C35.975 13.0475 35.67 12.9275 35.37 12.7875C35.07 12.6475 34.8025 12.465 34.5675 12.24C34.3325 12.015 34.1425 11.735 33.9975 11.4C33.8575 11.06 33.7875 10.6425 33.7875 10.1475C33.7875 9.7525 33.865 9.3675 34.02 8.9925C34.18 8.6175 34.41 8.285 34.71 7.995C35.01 7.705 35.38 7.4725 35.82 7.2975C36.26 7.1225 36.765 7.035 37.335 7.035C37.975 7.035 38.565 7.135 39.105 7.335C39.645 7.535 40.105 7.815 40.485 8.175L39.9825 9.1275ZM44.0381 10.305V18H42.1781V10.305H44.0381ZM44.2931 8.0625C44.2931 8.2225 44.2606 8.3725 44.1956 8.5125C44.1306 8.6525 44.0431 8.775 43.9331 8.88C43.8281 8.985 43.7031 9.07 43.5581 9.135C43.4131 9.195 43.2581 9.225 43.0931 9.225C42.9331 9.225 42.7806 9.195 42.6356 9.135C42.4956 9.07 42.3731 8.985 42.2681 8.88C42.1631 8.775 42.0781 8.6525 42.0131 8.5125C41.9531 8.3725 41.9231 8.2225 41.9231 8.0625C41.9231 7.8975 41.9531 7.7425 42.0131 7.5975C42.0781 7.4525 42.1631 7.3275 42.2681 7.2225C42.3731 7.1175 42.4956 7.035 42.6356 6.975C42.7806 6.91 42.9331 6.8775 43.0931 6.8775C43.2581 6.8775 43.4131 6.91 43.5581 6.975C43.7031 7.035 43.8281 7.1175 43.9331 7.2225C44.0431 7.3275 44.1306 7.4525 44.1956 7.5975C44.2606 7.7425 44.2931 7.8975 44.2931 8.0625ZM48.7392 13.965C48.9692 13.965 49.1692 13.935 49.3392 13.875C49.5092 13.81 49.6492 13.7225 49.7592 13.6125C49.8742 13.5025 49.9592 13.37 50.0142 13.215C50.0742 13.06 50.1042 12.89 50.1042 12.705C50.1042 12.325 49.9892 12.025 49.7592 11.805C49.5342 11.58 49.1942 11.4675 48.7392 11.4675C48.2842 11.4675 47.9417 11.58 47.7117 11.805C47.4867 12.025 47.3742 12.325 47.3742 12.705C47.3742 12.885 47.4017 13.0525 47.4567 13.2075C47.5167 13.3625 47.6017 13.4975 47.7117 13.6125C47.8267 13.7225 47.9692 13.81 48.1392 13.875C48.3142 13.935 48.5142 13.965 48.7392 13.965ZM50.8317 18.345C50.8317 18.195 50.7867 18.0725 50.6967 17.9775C50.6067 17.8825 50.4842 17.81 50.3292 17.76C50.1742 17.705 49.9917 17.665 49.7817 17.64C49.5767 17.615 49.3567 17.5975 49.1217 17.5875C48.8917 17.5725 48.6517 17.56 48.4017 17.55C48.1567 17.54 47.9167 17.52 47.6817 17.49C47.4767 17.605 47.3092 17.74 47.1792 17.895C47.0542 18.05 46.9917 18.23 46.9917 18.435C46.9917 18.57 47.0242 18.695 47.0892 18.81C47.1592 18.93 47.2667 19.0325 47.4117 19.1175C47.5617 19.2025 47.7542 19.2675 47.9892 19.3125C48.2242 19.3625 48.5117 19.3875 48.8517 19.3875C49.1967 19.3875 49.4942 19.36 49.7442 19.305C49.9942 19.255 50.1992 19.1825 50.3592 19.0875C50.5242 18.9975 50.6442 18.8875 50.7192 18.7575C50.7942 18.6325 50.8317 18.495 50.8317 18.345ZM52.6767 10.5675V11.2575C52.6767 11.4775 52.5442 11.6125 52.2792 11.6625L51.5892 11.79C51.6942 12.055 51.7467 12.345 51.7467 12.66C51.7467 13.04 51.6692 13.385 51.5142 13.695C51.3642 14 51.1542 14.26 50.8842 14.475C50.6142 14.69 50.2942 14.8575 49.9242 14.9775C49.5592 15.0925 49.1642 15.15 48.7392 15.15C48.5892 15.15 48.4442 15.1425 48.3042 15.1275C48.1642 15.1125 48.0267 15.0925 47.8917 15.0675C47.6517 15.2125 47.5317 15.375 47.5317 15.555C47.5317 15.71 47.6017 15.825 47.7417 15.9C47.8867 15.97 48.0767 16.02 48.3117 16.05C48.5467 16.08 48.8142 16.1 49.1142 16.11C49.4142 16.115 49.7217 16.13 50.0367 16.155C50.3517 16.18 50.6592 16.225 50.9592 16.29C51.2592 16.35 51.5267 16.4475 51.7617 16.5825C51.9967 16.7175 52.1842 16.9025 52.3242 17.1375C52.4692 17.3675 52.5417 17.665 52.5417 18.03C52.5417 18.37 52.4567 18.7 52.2867 19.02C52.1217 19.34 51.8792 19.625 51.5592 19.875C51.2442 20.125 50.8542 20.325 50.3892 20.475C49.9292 20.63 49.4042 20.7075 48.8142 20.7075C48.2342 20.7075 47.7292 20.65 47.2992 20.535C46.8692 20.425 46.5117 20.275 46.2267 20.085C45.9417 19.9 45.7292 19.685 45.5892 19.44C45.4492 19.195 45.3792 18.94 45.3792 18.675C45.3792 18.315 45.4867 18.015 45.7017 17.775C45.9217 17.53 46.2217 17.335 46.6017 17.19C46.3967 17.085 46.2342 16.945 46.1142 16.77C45.9942 16.595 45.9342 16.365 45.9342 16.08C45.9342 15.965 45.9542 15.8475 45.9942 15.7275C46.0392 15.6025 46.1017 15.48 46.1817 15.36C46.2667 15.24 46.3717 15.1275 46.4967 15.0225C46.6217 14.9125 46.7692 14.815 46.9392 14.73C46.5492 14.52 46.2417 14.24 46.0167 13.89C45.7967 13.54 45.6867 13.13 45.6867 12.66C45.6867 12.28 45.7617 11.9375 45.9117 11.6325C46.0667 11.3225 46.2792 11.06 46.5492 10.845C46.8242 10.625 47.1467 10.4575 47.5167 10.3425C47.8917 10.2275 48.2992 10.17 48.7392 10.17C49.0692 10.17 49.3792 10.205 49.6692 10.275C49.9592 10.34 50.2242 10.4375 50.4642 10.5675H52.6767ZM55.584 11.25C55.739 11.095 55.9015 10.9525 56.0715 10.8225C56.2465 10.6875 56.429 10.575 56.619 10.485C56.814 10.39 57.0215 10.3175 57.2415 10.2675C57.4615 10.2125 57.7015 10.185 57.9615 10.185C58.3815 10.185 58.754 10.2575 59.079 10.4025C59.404 10.5425 59.674 10.7425 59.889 11.0025C60.109 11.2575 60.274 11.565 60.384 11.925C60.499 12.28 60.5565 12.6725 60.5565 13.1025V18H58.704V13.1025C58.704 12.6325 58.5965 12.27 58.3815 12.015C58.1665 11.755 57.839 11.625 57.399 11.625C57.079 11.625 56.779 11.6975 56.499 11.8425C56.219 11.9875 55.954 12.185 55.704 12.435V18H53.8515V10.305H54.984C55.224 10.305 55.3815 10.4175 55.4565 10.6425L55.584 11.25ZM72.5958 10.305V18H71.4633C71.2183 18 71.0633 17.8875 70.9983 17.6625L70.8708 17.0475C70.5558 17.3675 70.2083 17.6275 69.8283 17.8275C69.4483 18.0225 69.0008 18.12 68.4858 18.12C68.0658 18.12 67.6933 18.05 67.3683 17.91C67.0483 17.765 66.7783 17.5625 66.5583 17.3025C66.3383 17.0425 66.1708 16.735 66.0558 16.38C65.9458 16.02 65.8908 15.625 65.8908 15.195V10.305H67.7433V15.195C67.7433 15.665 67.8508 16.03 68.0658 16.29C68.2858 16.545 68.6133 16.6725 69.0483 16.6725C69.3683 16.6725 69.6683 16.6025 69.9483 16.4625C70.2283 16.3175 70.4933 16.12 70.7433 15.87V10.305H72.5958ZM76.2851 16.005C76.4951 16.26 76.7226 16.44 76.9676 16.545C77.2176 16.65 77.4876 16.7025 77.7776 16.7025C78.0576 16.7025 78.3101 16.65 78.5351 16.545C78.7601 16.44 78.9501 16.28 79.1051 16.065C79.2651 15.85 79.3876 15.58 79.4726 15.255C79.5576 14.925 79.6001 14.5375 79.6001 14.0925C79.6001 13.6425 79.5626 13.2625 79.4876 12.9525C79.4176 12.6375 79.3151 12.3825 79.1801 12.1875C79.0451 11.9925 78.8801 11.85 78.6851 11.76C78.4951 11.67 78.2776 11.625 78.0326 11.625C77.6476 11.625 77.3201 11.7075 77.0501 11.8725C76.7801 12.0325 76.5251 12.26 76.2851 12.555V16.005ZM76.1876 11.355C76.5026 11 76.8601 10.7125 77.2601 10.4925C77.6601 10.2725 78.1301 10.1625 78.6701 10.1625C79.0901 10.1625 79.4726 10.25 79.8176 10.425C80.1676 10.6 80.4676 10.855 80.7176 11.19C80.9726 11.52 81.1676 11.93 81.3026 12.42C81.4426 12.905 81.5126 13.4625 81.5126 14.0925C81.5126 14.6675 81.4351 15.2 81.2801 15.69C81.1251 16.18 80.9026 16.605 80.6126 16.965C80.3276 17.325 79.9801 17.6075 79.5701 17.8125C79.1651 18.0125 78.7101 18.1125 78.2051 18.1125C77.7751 18.1125 77.4076 18.0475 77.1026 17.9175C76.7976 17.7825 76.5251 17.5975 76.2851 17.3625V20.5125H74.4326V10.305H75.5651C75.8051 10.305 75.9626 10.4175 76.0376 10.6425L76.1876 11.355ZM97.2853 10.305L94.8403 18H93.3553C93.1853 18 93.0678 17.89 93.0028 17.67L91.6228 13.2225C91.5778 13.0725 91.5353 12.925 91.4953 12.78C91.4603 12.63 91.4303 12.48 91.4053 12.33C91.3753 12.48 91.3403 12.6325 91.3003 12.7875C91.2653 12.9375 91.2253 13.0875 91.1803 13.2375L89.7778 17.67C89.7178 17.89 89.5853 18 89.3803 18H87.9553L85.5178 10.305H86.9953C87.1303 10.305 87.2453 10.3375 87.3403 10.4025C87.4353 10.4675 87.4978 10.55 87.5278 10.65L88.6303 14.76C88.6853 14.985 88.7328 15.205 88.7728 15.42C88.8178 15.635 88.8553 15.85 88.8853 16.065C88.9403 15.85 88.9978 15.635 89.0578 15.42C89.1228 15.205 89.1903 14.985 89.2603 14.76L90.5353 10.635C90.5653 10.535 90.6228 10.4525 90.7078 10.3875C90.7978 10.3225 90.9053 10.29 91.0303 10.29H91.8478C91.9778 10.29 92.0878 10.3225 92.1778 10.3875C92.2728 10.4525 92.3353 10.535 92.3653 10.635L93.6028 14.76C93.6678 14.985 93.7278 15.2075 93.7828 15.4275C93.8428 15.6425 93.9003 15.8575 93.9553 16.0725C94.0203 15.6475 94.1128 15.21 94.2328 14.76L95.3653 10.65C95.4003 10.55 95.4628 10.4675 95.5528 10.4025C95.6428 10.3375 95.7503 10.305 95.8753 10.305H97.2853ZM100.259 10.305V18H98.3988V10.305H100.259ZM100.514 8.0625C100.514 8.2225 100.481 8.3725 100.416 8.5125C100.351 8.6525 100.264 8.775 100.154 8.88C100.049 8.985 99.9238 9.07 99.7788 9.135C99.6338 9.195 99.4788 9.225 99.3138 9.225C99.1538 9.225 99.0013 9.195 98.8563 9.135C98.7163 9.07 98.5938 8.985 98.4888 8.88C98.3838 8.775 98.2988 8.6525 98.2338 8.5125C98.1738 8.3725 98.1438 8.2225 98.1438 8.0625C98.1438 7.8975 98.1738 7.7425 98.2338 7.5975C98.2988 7.4525 98.3838 7.3275 98.4888 7.2225C98.5938 7.1175 98.7163 7.035 98.8563 6.975C99.0013 6.91 99.1538 6.8775 99.3138 6.8775C99.4788 6.8775 99.6338 6.91 99.7788 6.975C99.9238 7.035 100.049 7.1175 100.154 7.2225C100.264 7.3275 100.351 7.4525 100.416 7.5975C100.481 7.7425 100.514 7.8975 100.514 8.0625ZM104.712 18.12C104.042 18.12 103.527 17.9325 103.167 17.5575C102.812 17.1775 102.635 16.655 102.635 15.99V11.6925H101.847C101.747 11.6925 101.662 11.66 101.592 11.595C101.522 11.53 101.487 11.4325 101.487 11.3025V10.5675L102.725 10.365L103.115 8.265C103.14 8.165 103.187 8.0875 103.257 8.0325C103.327 7.9775 103.417 7.95 103.527 7.95H104.487V10.3725H106.542V11.6925H104.487V15.8625C104.487 16.1025 104.545 16.29 104.66 16.425C104.78 16.56 104.942 16.6275 105.147 16.6275C105.262 16.6275 105.357 16.615 105.432 16.59C105.512 16.56 105.58 16.53 105.635 16.5C105.695 16.47 105.747 16.4425 105.792 16.4175C105.837 16.3875 105.882 16.3725 105.927 16.3725C105.982 16.3725 106.027 16.3875 106.062 16.4175C106.097 16.4425 106.135 16.4825 106.175 16.5375L106.73 17.4375C106.46 17.6625 106.15 17.8325 105.8 17.9475C105.45 18.0625 105.087 18.12 104.712 18.12ZM109.581 11.13C109.881 10.85 110.211 10.6225 110.571 10.4475C110.931 10.2725 111.353 10.185 111.838 10.185C112.258 10.185 112.631 10.2575 112.956 10.4025C113.281 10.5425 113.551 10.7425 113.766 11.0025C113.986 11.2575 114.151 11.565 114.261 11.925C114.376 12.28 114.433 12.6725 114.433 13.1025V18H112.581V13.1025C112.581 12.6325 112.473 12.27 112.258 12.015C112.043 11.755 111.716 11.625 111.276 11.625C110.956 11.625 110.656 11.6975 110.376 11.8425C110.096 11.9875 109.831 12.185 109.581 12.435V18H107.728V6.855H109.581V11.13ZM122.16 8.76V11.97H126.225V13.5825H122.16V18H120.135V7.155H126.975V8.76H122.16ZM131.393 14.715C130.858 14.74 130.408 14.7875 130.043 14.8575C129.678 14.9225 129.386 15.0075 129.166 15.1125C128.946 15.2175 128.788 15.34 128.693 15.48C128.598 15.62 128.551 15.7725 128.551 15.9375C128.551 16.2625 128.646 16.495 128.836 16.635C129.031 16.775 129.283 16.845 129.593 16.845C129.973 16.845 130.301 16.7775 130.576 16.6425C130.856 16.5025 131.128 16.2925 131.393 16.0125V14.715ZM127.148 11.3775C128.033 10.5675 129.098 10.1625 130.343 10.1625C130.793 10.1625 131.196 10.2375 131.551 10.3875C131.906 10.5325 132.206 10.7375 132.451 11.0025C132.696 11.2625 132.881 11.575 133.006 11.94C133.136 12.305 133.201 12.705 133.201 13.14V18H132.361C132.186 18 132.051 17.975 131.956 17.925C131.861 17.87 131.786 17.7625 131.731 17.6025L131.566 17.0475C131.371 17.2225 131.181 17.3775 130.996 17.5125C130.811 17.6425 130.618 17.7525 130.418 17.8425C130.218 17.9325 130.003 18 129.773 18.045C129.548 18.095 129.298 18.12 129.023 18.12C128.698 18.12 128.398 18.0775 128.123 17.9925C127.848 17.9025 127.611 17.77 127.411 17.595C127.211 17.42 127.056 17.2025 126.946 16.9425C126.836 16.6825 126.781 16.38 126.781 16.035C126.781 15.84 126.813 15.6475 126.878 15.4575C126.943 15.2625 127.048 15.0775 127.193 14.9025C127.343 14.7275 127.536 14.5625 127.771 14.4075C128.006 14.2525 128.293 14.1175 128.633 14.0025C128.978 13.8875 129.378 13.795 129.833 13.725C130.288 13.65 130.808 13.605 131.393 13.59V13.14C131.393 12.625 131.283 12.245 131.063 12C130.843 11.75 130.526 11.625 130.111 11.625C129.811 11.625 129.561 11.66 129.361 11.73C129.166 11.8 128.993 11.88 128.843 11.97C128.693 12.055 128.556 12.1325 128.431 12.2025C128.311 12.2725 128.176 12.3075 128.026 12.3075C127.896 12.3075 127.786 12.275 127.696 12.21C127.606 12.14 127.533 12.06 127.478 11.97L127.148 11.3775ZM140.458 11.9325C140.403 12.0025 140.348 12.0575 140.293 12.0975C140.243 12.1375 140.168 12.1575 140.068 12.1575C139.973 12.1575 139.88 12.13 139.79 12.075C139.7 12.015 139.593 11.95 139.468 11.88C139.343 11.805 139.193 11.74 139.018 11.685C138.848 11.625 138.635 11.595 138.38 11.595C138.055 11.595 137.77 11.655 137.525 11.775C137.28 11.89 137.075 12.0575 136.91 12.2775C136.75 12.4975 136.63 12.765 136.55 13.08C136.47 13.39 136.43 13.7425 136.43 14.1375C136.43 14.5475 136.473 14.9125 136.558 15.2325C136.648 15.5525 136.775 15.8225 136.94 16.0425C137.105 16.2575 137.305 16.4225 137.54 16.5375C137.775 16.6475 138.04 16.7025 138.335 16.7025C138.63 16.7025 138.868 16.6675 139.048 16.5975C139.233 16.5225 139.388 16.4425 139.513 16.3575C139.638 16.2675 139.745 16.1875 139.835 16.1175C139.93 16.0425 140.035 16.005 140.15 16.005C140.3 16.005 140.413 16.0625 140.488 16.1775L141.02 16.8525C140.815 17.0925 140.593 17.295 140.353 17.46C140.113 17.62 139.863 17.75 139.603 17.85C139.348 17.945 139.083 18.0125 138.808 18.0525C138.538 18.0925 138.268 18.1125 137.998 18.1125C137.523 18.1125 137.075 18.025 136.655 17.85C136.235 17.67 135.868 17.41 135.553 17.07C135.238 16.73 134.988 16.315 134.803 15.825C134.623 15.33 134.533 14.7675 134.533 14.1375C134.533 13.5725 134.613 13.05 134.773 12.57C134.938 12.085 135.178 11.6675 135.493 11.3175C135.808 10.9625 136.198 10.685 136.663 10.485C137.128 10.285 137.663 10.185 138.268 10.185C138.843 10.185 139.345 10.2775 139.775 10.4625C140.21 10.6475 140.6 10.9125 140.945 11.2575L140.458 11.9325ZM147.007 13.2675C147.007 13.0275 146.972 12.8025 146.902 12.5925C146.837 12.3775 146.737 12.19 146.602 12.03C146.467 11.87 146.295 11.745 146.085 11.655C145.88 11.56 145.64 11.5125 145.365 11.5125C144.83 11.5125 144.407 11.665 144.097 11.97C143.792 12.275 143.597 12.7075 143.512 13.2675H147.007ZM143.475 14.385C143.505 14.78 143.575 15.1225 143.685 15.4125C143.795 15.6975 143.94 15.935 144.12 16.125C144.3 16.31 144.512 16.45 144.757 16.545C145.007 16.635 145.282 16.68 145.582 16.68C145.882 16.68 146.14 16.645 146.355 16.575C146.575 16.505 146.765 16.4275 146.925 16.3425C147.09 16.2575 147.232 16.18 147.352 16.11C147.477 16.04 147.597 16.005 147.712 16.005C147.867 16.005 147.982 16.0625 148.057 16.1775L148.59 16.8525C148.385 17.0925 148.155 17.295 147.9 17.46C147.645 17.62 147.377 17.75 147.097 17.85C146.822 17.945 146.54 18.0125 146.25 18.0525C145.965 18.0925 145.687 18.1125 145.417 18.1125C144.882 18.1125 144.385 18.025 143.925 17.85C143.465 17.67 143.065 17.4075 142.725 17.0625C142.385 16.7125 142.117 16.2825 141.922 15.7725C141.727 15.2575 141.63 14.6625 141.63 13.9875C141.63 13.4625 141.715 12.97 141.885 12.51C142.055 12.045 142.297 11.6425 142.612 11.3025C142.932 10.9575 143.32 10.685 143.775 10.485C144.235 10.285 144.752 10.185 145.327 10.185C145.812 10.185 146.26 10.2625 146.67 10.4175C147.08 10.5725 147.432 10.8 147.727 11.1C148.022 11.395 148.252 11.76 148.417 12.195C148.587 12.625 148.672 13.1175 148.672 13.6725C148.672 13.9525 148.642 14.1425 148.582 14.2425C148.522 14.3375 148.407 14.385 148.237 14.385H143.475ZM151.915 16.005C152.125 16.26 152.352 16.44 152.597 16.545C152.847 16.65 153.11 16.7025 153.385 16.7025C153.67 16.7025 153.925 16.6525 154.15 16.5525C154.38 16.4475 154.575 16.2875 154.735 16.0725C154.895 15.8525 155.017 15.575 155.102 15.24C155.187 14.9 155.23 14.495 155.23 14.025C155.23 13.18 155.09 12.57 154.81 12.195C154.53 11.815 154.127 11.625 153.602 11.625C153.247 11.625 152.937 11.7075 152.672 11.8725C152.407 12.0325 152.155 12.26 151.915 12.555V16.005ZM151.915 11.25C152.225 10.925 152.567 10.6675 152.942 10.4775C153.322 10.2825 153.755 10.185 154.24 10.185C154.685 10.185 155.085 10.2725 155.44 10.4475C155.8 10.6225 156.105 10.875 156.355 11.205C156.61 11.53 156.805 11.925 156.94 12.39C157.075 12.855 157.142 13.3775 157.142 13.9575C157.142 14.5825 157.065 15.15 156.91 15.66C156.755 16.17 156.532 16.6075 156.242 16.9725C155.957 17.3325 155.612 17.6125 155.207 17.8125C154.802 18.0125 154.352 18.1125 153.857 18.1125C153.617 18.1125 153.4 18.0875 153.205 18.0375C153.01 17.9925 152.83 17.9275 152.665 17.8425C152.5 17.7575 152.347 17.655 152.207 17.535C152.072 17.41 151.942 17.2725 151.817 17.1225L151.735 17.64C151.705 17.77 151.652 17.8625 151.577 17.9175C151.507 17.9725 151.41 18 151.285 18H150.062V6.855H151.915V11.25ZM161.978 10.185C162.548 10.185 163.066 10.2775 163.531 10.4625C164.001 10.6475 164.401 10.91 164.731 11.25C165.066 11.59 165.323 12.005 165.503 12.495C165.683 12.985 165.773 13.5325 165.773 14.1375C165.773 14.7475 165.683 15.2975 165.503 15.7875C165.323 16.2775 165.066 16.695 164.731 17.04C164.401 17.385 164.001 17.65 163.531 17.835C163.066 18.02 162.548 18.1125 161.978 18.1125C161.403 18.1125 160.881 18.02 160.411 17.835C159.941 17.65 159.538 17.385 159.203 17.04C158.873 16.695 158.616 16.2775 158.431 15.7875C158.251 15.2975 158.161 14.7475 158.161 14.1375C158.161 13.5325 158.251 12.985 158.431 12.495C158.616 12.005 158.873 11.59 159.203 11.25C159.538 10.91 159.941 10.6475 160.411 10.4625C160.881 10.2775 161.403 10.185 161.978 10.185ZM161.978 16.6875C162.618 16.6875 163.091 16.4725 163.396 16.0425C163.706 15.6125 163.861 14.9825 163.861 14.1525C163.861 13.3225 163.706 12.69 163.396 12.255C163.091 11.82 162.618 11.6025 161.978 11.6025C161.328 11.6025 160.846 11.8225 160.531 12.2625C160.221 12.6975 160.066 13.3275 160.066 14.1525C160.066 14.9775 160.221 15.6075 160.531 16.0425C160.846 16.4725 161.328 16.6875 161.978 16.6875ZM170.591 10.185C171.161 10.185 171.679 10.2775 172.144 10.4625C172.614 10.6475 173.014 10.91 173.344 11.25C173.679 11.59 173.936 12.005 174.116 12.495C174.296 12.985 174.386 13.5325 174.386 14.1375C174.386 14.7475 174.296 15.2975 174.116 15.7875C173.936 16.2775 173.679 16.695 173.344 17.04C173.014 17.385 172.614 17.65 172.144 17.835C171.679 18.02 171.161 18.1125 170.591 18.1125C170.016 18.1125 169.494 18.02 169.024 17.835C168.554 17.65 168.151 17.385 167.816 17.04C167.486 16.695 167.229 16.2775 167.044 15.7875C166.864 15.2975 166.774 14.7475 166.774 14.1375C166.774 13.5325 166.864 12.985 167.044 12.495C167.229 12.005 167.486 11.59 167.816 11.25C168.151 10.91 168.554 10.6475 169.024 10.4625C169.494 10.2775 170.016 10.185 170.591 10.185ZM170.591 16.6875C171.231 16.6875 171.704 16.4725 172.009 16.0425C172.319 15.6125 172.474 14.9825 172.474 14.1525C172.474 13.3225 172.319 12.69 172.009 12.255C171.704 11.82 171.231 11.6025 170.591 11.6025C169.941 11.6025 169.459 11.8225 169.144 12.2625C168.834 12.6975 168.679 13.3275 168.679 14.1525C168.679 14.9775 168.834 15.6075 169.144 16.0425C169.459 16.4725 169.941 16.6875 170.591 16.6875ZM177.652 6.855V13.2375H177.997C178.122 13.2375 178.22 13.2225 178.29 13.1925C178.365 13.1575 178.44 13.09 178.515 12.99L180.427 10.6275C180.507 10.5225 180.595 10.4425 180.69 10.3875C180.79 10.3325 180.917 10.305 181.072 10.305H182.767L180.375 13.1625C180.205 13.3875 180.02 13.56 179.82 13.68C179.925 13.755 180.017 13.8425 180.097 13.9425C180.182 14.0425 180.262 14.15 180.337 14.265L182.902 18H181.23C181.085 18 180.96 17.9775 180.855 17.9325C180.75 17.8825 180.662 17.795 180.592 17.67L178.627 14.7525C178.557 14.6375 178.485 14.5625 178.41 14.5275C178.335 14.4925 178.222 14.475 178.072 14.475H177.652V18H175.8V6.855H177.652Z" fill="#131313"/>
</svg>
