<svg width="162" height="18" viewBox="0 0 162 18" fill="none" xmlns="http://www.w3.org/2000/svg">
<path d="M34.9825 6.1275C34.9225 6.2325 34.8575 6.31 34.7875 6.36C34.7225 6.405 34.64 6.4275 34.54 6.4275C34.435 6.4275 34.32 6.39 34.195 6.315C34.075 6.235 33.93 6.1475 33.76 6.0525C33.59 5.9575 33.39 5.8725 33.16 5.7975C32.935 5.7175 32.6675 5.6775 32.3575 5.6775C32.0775 5.6775 31.8325 5.7125 31.6225 5.7825C31.4125 5.8475 31.235 5.94 31.09 6.06C30.95 6.18 30.845 6.325 30.775 6.495C30.705 6.66 30.67 6.8425 30.67 7.0425C30.67 7.2975 30.74 7.51 30.88 7.68C31.025 7.85 31.215 7.995 31.45 8.115C31.685 8.235 31.9525 8.3425 32.2525 8.4375C32.5525 8.5325 32.86 8.635 33.175 8.745C33.49 8.85 33.7975 8.975 34.0975 9.12C34.3975 9.26 34.665 9.44 34.9 9.66C35.135 9.875 35.3225 10.14 35.4625 10.455C35.6075 10.77 35.68 11.1525 35.68 11.6025C35.68 12.0925 35.595 12.5525 35.425 12.9825C35.26 13.4075 35.015 13.78 34.69 14.1C34.37 14.415 33.9775 14.665 33.5125 14.85C33.0475 15.03 32.515 15.12 31.915 15.12C31.57 15.12 31.23 15.085 30.895 15.015C30.56 14.95 30.2375 14.855 29.9275 14.73C29.6225 14.605 29.335 14.455 29.065 14.28C28.795 14.105 28.555 13.91 28.345 13.695L28.9375 12.7275C28.9875 12.6575 29.0525 12.6 29.1325 12.555C29.2125 12.505 29.2975 12.48 29.3875 12.48C29.5125 12.48 29.6475 12.5325 29.7925 12.6375C29.9375 12.7375 30.11 12.85 30.31 12.975C30.51 13.1 30.7425 13.215 31.0075 13.32C31.2775 13.42 31.6 13.47 31.975 13.47C32.55 13.47 32.995 13.335 33.31 13.065C33.625 12.79 33.7825 12.3975 33.7825 11.8875C33.7825 11.6025 33.71 11.37 33.565 11.19C33.425 11.01 33.2375 10.86 33.0025 10.74C32.7675 10.615 32.5 10.51 32.2 10.425C31.9 10.34 31.595 10.2475 31.285 10.1475C30.975 10.0475 30.67 9.9275 30.37 9.7875C30.07 9.6475 29.8025 9.465 29.5675 9.24C29.3325 9.015 29.1425 8.735 28.9975 8.4C28.8575 8.06 28.7875 7.6425 28.7875 7.1475C28.7875 6.7525 28.865 6.3675 29.02 5.9925C29.18 5.6175 29.41 5.285 29.71 4.995C30.01 4.705 30.38 4.4725 30.82 4.2975C31.26 4.1225 31.765 4.035 32.335 4.035C32.975 4.035 33.565 4.135 34.105 4.335C34.645 4.535 35.105 4.815 35.485 5.175L34.9825 6.1275ZM39.0381 7.305V15H37.1781V7.305H39.0381ZM39.2931 5.0625C39.2931 5.2225 39.2606 5.3725 39.1956 5.5125C39.1306 5.6525 39.0431 5.775 38.9331 5.88C38.8281 5.985 38.7031 6.07 38.5581 6.135C38.4131 6.195 38.2581 6.225 38.0931 6.225C37.9331 6.225 37.7806 6.195 37.6356 6.135C37.4956 6.07 37.3731 5.985 37.2681 5.88C37.1631 5.775 37.0781 5.6525 37.0131 5.5125C36.9531 5.3725 36.9231 5.2225 36.9231 5.0625C36.9231 4.8975 36.9531 4.7425 37.0131 4.5975C37.0781 4.4525 37.1631 4.3275 37.2681 4.2225C37.3731 4.1175 37.4956 4.035 37.6356 3.975C37.7806 3.91 37.9331 3.8775 38.0931 3.8775C38.2581 3.8775 38.4131 3.91 38.5581 3.975C38.7031 4.035 38.8281 4.1175 38.9331 4.2225C39.0431 4.3275 39.1306 4.4525 39.1956 4.5975C39.2606 4.7425 39.2931 4.8975 39.2931 5.0625ZM43.7392 10.965C43.9692 10.965 44.1692 10.935 44.3392 10.875C44.5092 10.81 44.6492 10.7225 44.7592 10.6125C44.8742 10.5025 44.9592 10.37 45.0142 10.215C45.0742 10.06 45.1042 9.89 45.1042 9.705C45.1042 9.325 44.9892 9.025 44.7592 8.805C44.5342 8.58 44.1942 8.4675 43.7392 8.4675C43.2842 8.4675 42.9417 8.58 42.7117 8.805C42.4867 9.025 42.3742 9.325 42.3742 9.705C42.3742 9.885 42.4017 10.0525 42.4567 10.2075C42.5167 10.3625 42.6017 10.4975 42.7117 10.6125C42.8267 10.7225 42.9692 10.81 43.1392 10.875C43.3142 10.935 43.5142 10.965 43.7392 10.965ZM45.8317 15.345C45.8317 15.195 45.7867 15.0725 45.6967 14.9775C45.6067 14.8825 45.4842 14.81 45.3292 14.76C45.1742 14.705 44.9917 14.665 44.7817 14.64C44.5767 14.615 44.3567 14.5975 44.1217 14.5875C43.8917 14.5725 43.6517 14.56 43.4017 14.55C43.1567 14.54 42.9167 14.52 42.6817 14.49C42.4767 14.605 42.3092 14.74 42.1792 14.895C42.0542 15.05 41.9917 15.23 41.9917 15.435C41.9917 15.57 42.0242 15.695 42.0892 15.81C42.1592 15.93 42.2667 16.0325 42.4117 16.1175C42.5617 16.2025 42.7542 16.2675 42.9892 16.3125C43.2242 16.3625 43.5117 16.3875 43.8517 16.3875C44.1967 16.3875 44.4942 16.36 44.7442 16.305C44.9942 16.255 45.1992 16.1825 45.3592 16.0875C45.5242 15.9975 45.6442 15.8875 45.7192 15.7575C45.7942 15.6325 45.8317 15.495 45.8317 15.345ZM47.6767 7.5675V8.2575C47.6767 8.4775 47.5442 8.6125 47.2792 8.6625L46.5892 8.79C46.6942 9.055 46.7467 9.345 46.7467 9.66C46.7467 10.04 46.6692 10.385 46.5142 10.695C46.3642 11 46.1542 11.26 45.8842 11.475C45.6142 11.69 45.2942 11.8575 44.9242 11.9775C44.5592 12.0925 44.1642 12.15 43.7392 12.15C43.5892 12.15 43.4442 12.1425 43.3042 12.1275C43.1642 12.1125 43.0267 12.0925 42.8917 12.0675C42.6517 12.2125 42.5317 12.375 42.5317 12.555C42.5317 12.71 42.6017 12.825 42.7417 12.9C42.8867 12.97 43.0767 13.02 43.3117 13.05C43.5467 13.08 43.8142 13.1 44.1142 13.11C44.4142 13.115 44.7217 13.13 45.0367 13.155C45.3517 13.18 45.6592 13.225 45.9592 13.29C46.2592 13.35 46.5267 13.4475 46.7617 13.5825C46.9967 13.7175 47.1842 13.9025 47.3242 14.1375C47.4692 14.3675 47.5417 14.665 47.5417 15.03C47.5417 15.37 47.4567 15.7 47.2867 16.02C47.1217 16.34 46.8792 16.625 46.5592 16.875C46.2442 17.125 45.8542 17.325 45.3892 17.475C44.9292 17.63 44.4042 17.7075 43.8142 17.7075C43.2342 17.7075 42.7292 17.65 42.2992 17.535C41.8692 17.425 41.5117 17.275 41.2267 17.085C40.9417 16.9 40.7292 16.685 40.5892 16.44C40.4492 16.195 40.3792 15.94 40.3792 15.675C40.3792 15.315 40.4867 15.015 40.7017 14.775C40.9217 14.53 41.2217 14.335 41.6017 14.19C41.3967 14.085 41.2342 13.945 41.1142 13.77C40.9942 13.595 40.9342 13.365 40.9342 13.08C40.9342 12.965 40.9542 12.8475 40.9942 12.7275C41.0392 12.6025 41.1017 12.48 41.1817 12.36C41.2667 12.24 41.3717 12.1275 41.4967 12.0225C41.6217 11.9125 41.7692 11.815 41.9392 11.73C41.5492 11.52 41.2417 11.24 41.0167 10.89C40.7967 10.54 40.6867 10.13 40.6867 9.66C40.6867 9.28 40.7617 8.9375 40.9117 8.6325C41.0667 8.3225 41.2792 8.06 41.5492 7.845C41.8242 7.625 42.1467 7.4575 42.5167 7.3425C42.8917 7.2275 43.2992 7.17 43.7392 7.17C44.0692 7.17 44.3792 7.205 44.6692 7.275C44.9592 7.34 45.2242 7.4375 45.4642 7.5675H47.6767ZM50.584 8.25C50.739 8.095 50.9015 7.9525 51.0715 7.8225C51.2465 7.6875 51.429 7.575 51.619 7.485C51.814 7.39 52.0215 7.3175 52.2415 7.2675C52.4615 7.2125 52.7015 7.185 52.9615 7.185C53.3815 7.185 53.754 7.2575 54.079 7.4025C54.404 7.5425 54.674 7.7425 54.889 8.0025C55.109 8.2575 55.274 8.565 55.384 8.925C55.499 9.28 55.5565 9.6725 55.5565 10.1025V15H53.704V10.1025C53.704 9.6325 53.5965 9.27 53.3815 9.015C53.1665 8.755 52.839 8.625 52.399 8.625C52.079 8.625 51.779 8.6975 51.499 8.8425C51.219 8.9875 50.954 9.185 50.704 9.435V15H48.8515V7.305H49.984C50.224 7.305 50.3815 7.4175 50.4565 7.6425L50.584 8.25ZM67.5958 7.305V15H66.4633C66.2183 15 66.0633 14.8875 65.9983 14.6625L65.8708 14.0475C65.5558 14.3675 65.2083 14.6275 64.8283 14.8275C64.4483 15.0225 64.0008 15.12 63.4858 15.12C63.0658 15.12 62.6933 15.05 62.3683 14.91C62.0483 14.765 61.7783 14.5625 61.5583 14.3025C61.3383 14.0425 61.1708 13.735 61.0558 13.38C60.9458 13.02 60.8908 12.625 60.8908 12.195V7.305H62.7433V12.195C62.7433 12.665 62.8508 13.03 63.0658 13.29C63.2858 13.545 63.6133 13.6725 64.0483 13.6725C64.3683 13.6725 64.6683 13.6025 64.9483 13.4625C65.2283 13.3175 65.4933 13.12 65.7433 12.87V7.305H67.5958ZM71.2851 13.005C71.4951 13.26 71.7226 13.44 71.9676 13.545C72.2176 13.65 72.4876 13.7025 72.7776 13.7025C73.0576 13.7025 73.3101 13.65 73.5351 13.545C73.7601 13.44 73.9501 13.28 74.1051 13.065C74.2651 12.85 74.3876 12.58 74.4726 12.255C74.5576 11.925 74.6001 11.5375 74.6001 11.0925C74.6001 10.6425 74.5626 10.2625 74.4876 9.9525C74.4176 9.6375 74.3151 9.3825 74.1801 9.1875C74.0451 8.9925 73.8801 8.85 73.6851 8.76C73.4951 8.67 73.2776 8.625 73.0326 8.625C72.6476 8.625 72.3201 8.7075 72.0501 8.8725C71.7801 9.0325 71.5251 9.26 71.2851 9.555V13.005ZM71.1876 8.355C71.5026 8 71.8601 7.7125 72.2601 7.4925C72.6601 7.2725 73.1301 7.1625 73.6701 7.1625C74.0901 7.1625 74.4726 7.25 74.8176 7.425C75.1676 7.6 75.4676 7.855 75.7176 8.19C75.9726 8.52 76.1676 8.93 76.3026 9.42C76.4426 9.905 76.5126 10.4625 76.5126 11.0925C76.5126 11.6675 76.4351 12.2 76.2801 12.69C76.1251 13.18 75.9026 13.605 75.6126 13.965C75.3276 14.325 74.9801 14.6075 74.5701 14.8125C74.1651 15.0125 73.7101 15.1125 73.2051 15.1125C72.7751 15.1125 72.4076 15.0475 72.1026 14.9175C71.7976 14.7825 71.5251 14.5975 71.2851 14.3625V17.5125H69.4326V7.305H70.5651C70.8051 7.305 70.9626 7.4175 71.0376 7.6425L71.1876 8.355ZM92.2853 7.305L89.8403 15H88.3553C88.1853 15 88.0678 14.89 88.0028 14.67L86.6228 10.2225C86.5778 10.0725 86.5353 9.925 86.4953 9.78C86.4603 9.63 86.4303 9.48 86.4053 9.33C86.3753 9.48 86.3403 9.6325 86.3003 9.7875C86.2653 9.9375 86.2253 10.0875 86.1803 10.2375L84.7778 14.67C84.7178 14.89 84.5853 15 84.3803 15H82.9553L80.5178 7.305H81.9953C82.1303 7.305 82.2453 7.3375 82.3403 7.4025C82.4353 7.4675 82.4978 7.55 82.5278 7.65L83.6303 11.76C83.6853 11.985 83.7328 12.205 83.7728 12.42C83.8178 12.635 83.8553 12.85 83.8853 13.065C83.9403 12.85 83.9978 12.635 84.0578 12.42C84.1228 12.205 84.1903 11.985 84.2603 11.76L85.5353 7.635C85.5653 7.535 85.6228 7.4525 85.7078 7.3875C85.7978 7.3225 85.9053 7.29 86.0303 7.29H86.8478C86.9778 7.29 87.0878 7.3225 87.1778 7.3875C87.2728 7.4525 87.3353 7.535 87.3653 7.635L88.6028 11.76C88.6678 11.985 88.7278 12.2075 88.7828 12.4275C88.8428 12.6425 88.9003 12.8575 88.9553 13.0725C89.0203 12.6475 89.1128 12.21 89.2328 11.76L90.3653 7.65C90.4003 7.55 90.4628 7.4675 90.5528 7.4025C90.6428 7.3375 90.7503 7.305 90.8753 7.305H92.2853ZM95.2588 7.305V15H93.3988V7.305H95.2588ZM95.5138 5.0625C95.5138 5.2225 95.4813 5.3725 95.4163 5.5125C95.3513 5.6525 95.2638 5.775 95.1538 5.88C95.0488 5.985 94.9238 6.07 94.7788 6.135C94.6338 6.195 94.4788 6.225 94.3138 6.225C94.1538 6.225 94.0013 6.195 93.8563 6.135C93.7163 6.07 93.5938 5.985 93.4888 5.88C93.3838 5.775 93.2988 5.6525 93.2338 5.5125C93.1738 5.3725 93.1438 5.2225 93.1438 5.0625C93.1438 4.8975 93.1738 4.7425 93.2338 4.5975C93.2988 4.4525 93.3838 4.3275 93.4888 4.2225C93.5938 4.1175 93.7163 4.035 93.8563 3.975C94.0013 3.91 94.1538 3.8775 94.3138 3.8775C94.4788 3.8775 94.6338 3.91 94.7788 3.975C94.9238 4.035 95.0488 4.1175 95.1538 4.2225C95.2638 4.3275 95.3513 4.4525 95.4163 4.5975C95.4813 4.7425 95.5138 4.8975 95.5138 5.0625ZM99.7124 15.12C99.0424 15.12 98.5274 14.9325 98.1674 14.5575C97.8124 14.1775 97.6349 13.655 97.6349 12.99V8.6925H96.8474C96.7474 8.6925 96.6624 8.66 96.5924 8.595C96.5224 8.53 96.4874 8.4325 96.4874 8.3025V7.5675L97.7249 7.365L98.1149 5.265C98.1399 5.165 98.1874 5.0875 98.2574 5.0325C98.3274 4.9775 98.4174 4.95 98.5274 4.95H99.4874V7.3725H101.542V8.6925H99.4874V12.8625C99.4874 13.1025 99.5449 13.29 99.6599 13.425C99.7799 13.56 99.9424 13.6275 100.147 13.6275C100.262 13.6275 100.357 13.615 100.432 13.59C100.512 13.56 100.58 13.53 100.635 13.5C100.695 13.47 100.747 13.4425 100.792 13.4175C100.837 13.3875 100.882 13.3725 100.927 13.3725C100.982 13.3725 101.027 13.3875 101.062 13.4175C101.097 13.4425 101.135 13.4825 101.175 13.5375L101.73 14.4375C101.46 14.6625 101.15 14.8325 100.8 14.9475C100.45 15.0625 100.087 15.12 99.7124 15.12ZM104.581 8.13C104.881 7.85 105.211 7.6225 105.571 7.4475C105.931 7.2725 106.353 7.185 106.838 7.185C107.258 7.185 107.631 7.2575 107.956 7.4025C108.281 7.5425 108.551 7.7425 108.766 8.0025C108.986 8.2575 109.151 8.565 109.261 8.925C109.376 9.28 109.433 9.6725 109.433 10.1025V15H107.581V10.1025C107.581 9.6325 107.473 9.27 107.258 9.015C107.043 8.755 106.716 8.625 106.276 8.625C105.956 8.625 105.656 8.6975 105.376 8.8425C105.096 8.9875 104.831 9.185 104.581 9.435V15H102.728V3.855H104.581V8.13ZM124.075 9.5625V13.95C123.525 14.355 122.938 14.6525 122.313 14.8425C121.693 15.0275 121.028 15.12 120.318 15.12C119.433 15.12 118.63 14.9825 117.91 14.7075C117.195 14.4325 116.583 14.05 116.073 13.56C115.568 13.07 115.178 12.485 114.903 11.805C114.628 11.125 114.49 10.3825 114.49 9.5775C114.49 8.7625 114.623 8.015 114.888 7.335C115.153 6.655 115.528 6.07 116.013 5.58C116.503 5.09 117.095 4.71 117.79 4.44C118.485 4.17 119.265 4.035 120.13 4.035C120.57 4.035 120.98 4.07 121.36 4.14C121.745 4.21 122.1 4.3075 122.425 4.4325C122.755 4.5525 123.055 4.7 123.325 4.875C123.595 5.05 123.843 5.2425 124.068 5.4525L123.49 6.3675C123.4 6.5125 123.283 6.6025 123.138 6.6375C122.993 6.6675 122.835 6.63 122.665 6.525C122.5 6.43 122.335 6.335 122.17 6.24C122.005 6.145 121.82 6.0625 121.615 5.9925C121.415 5.9225 121.188 5.865 120.933 5.82C120.683 5.775 120.393 5.7525 120.063 5.7525C119.528 5.7525 119.043 5.8425 118.608 6.0225C118.178 6.2025 117.81 6.46 117.505 6.795C117.2 7.13 116.965 7.5325 116.8 8.0025C116.635 8.4725 116.553 8.9975 116.553 9.5775C116.553 10.1975 116.64 10.7525 116.815 11.2425C116.995 11.7275 117.245 12.14 117.565 12.48C117.89 12.815 118.28 13.0725 118.735 13.2525C119.19 13.4275 119.698 13.515 120.258 13.515C120.658 13.515 121.015 13.4725 121.33 13.3875C121.645 13.3025 121.953 13.1875 122.253 13.0425V11.0775H120.888C120.758 11.0775 120.655 11.0425 120.58 10.9725C120.51 10.8975 120.475 10.8075 120.475 10.7025V9.5625H124.075ZM129.044 7.185C129.614 7.185 130.131 7.2775 130.596 7.4625C131.066 7.6475 131.466 7.91 131.796 8.25C132.131 8.59 132.389 9.005 132.569 9.495C132.749 9.985 132.839 10.5325 132.839 11.1375C132.839 11.7475 132.749 12.2975 132.569 12.7875C132.389 13.2775 132.131 13.695 131.796 14.04C131.466 14.385 131.066 14.65 130.596 14.835C130.131 15.02 129.614 15.1125 129.044 15.1125C128.469 15.1125 127.946 15.02 127.476 14.835C127.006 14.65 126.604 14.385 126.269 14.04C125.939 13.695 125.681 13.2775 125.496 12.7875C125.316 12.2975 125.226 11.7475 125.226 11.1375C125.226 10.5325 125.316 9.985 125.496 9.495C125.681 9.005 125.939 8.59 126.269 8.25C126.604 7.91 127.006 7.6475 127.476 7.4625C127.946 7.2775 128.469 7.185 129.044 7.185ZM129.044 13.6875C129.684 13.6875 130.156 13.4725 130.461 13.0425C130.771 12.6125 130.926 11.9825 130.926 11.1525C130.926 10.3225 130.771 9.69 130.461 9.255C130.156 8.82 129.684 8.6025 129.044 8.6025C128.394 8.6025 127.911 8.8225 127.596 9.2625C127.286 9.6975 127.131 10.3275 127.131 11.1525C127.131 11.9775 127.286 12.6075 127.596 13.0425C127.911 13.4725 128.394 13.6875 129.044 13.6875ZM137.657 7.185C138.227 7.185 138.744 7.2775 139.209 7.4625C139.679 7.6475 140.079 7.91 140.409 8.25C140.744 8.59 141.002 9.005 141.182 9.495C141.362 9.985 141.452 10.5325 141.452 11.1375C141.452 11.7475 141.362 12.2975 141.182 12.7875C141.002 13.2775 140.744 13.695 140.409 14.04C140.079 14.385 139.679 14.65 139.209 14.835C138.744 15.02 138.227 15.1125 137.657 15.1125C137.082 15.1125 136.559 15.02 136.089 14.835C135.619 14.65 135.217 14.385 134.882 14.04C134.552 13.695 134.294 13.2775 134.109 12.7875C133.929 12.2975 133.839 11.7475 133.839 11.1375C133.839 10.5325 133.929 9.985 134.109 9.495C134.294 9.005 134.552 8.59 134.882 8.25C135.217 7.91 135.619 7.6475 136.089 7.4625C136.559 7.2775 137.082 7.185 137.657 7.185ZM137.657 13.6875C138.297 13.6875 138.769 13.4725 139.074 13.0425C139.384 12.6125 139.539 11.9825 139.539 11.1525C139.539 10.3225 139.384 9.69 139.074 9.255C138.769 8.82 138.297 8.6025 137.657 8.6025C137.007 8.6025 136.524 8.8225 136.209 9.2625C135.899 9.6975 135.744 10.3275 135.744 11.1525C135.744 11.9775 135.899 12.6075 136.209 13.0425C136.524 13.4725 137.007 13.6875 137.657 13.6875ZM145.619 10.965C145.849 10.965 146.049 10.935 146.219 10.875C146.389 10.81 146.529 10.7225 146.639 10.6125C146.754 10.5025 146.839 10.37 146.894 10.215C146.954 10.06 146.984 9.89 146.984 9.705C146.984 9.325 146.869 9.025 146.639 8.805C146.414 8.58 146.074 8.4675 145.619 8.4675C145.164 8.4675 144.822 8.58 144.592 8.805C144.367 9.025 144.254 9.325 144.254 9.705C144.254 9.885 144.282 10.0525 144.337 10.2075C144.397 10.3625 144.482 10.4975 144.592 10.6125C144.707 10.7225 144.849 10.81 145.019 10.875C145.194 10.935 145.394 10.965 145.619 10.965ZM147.712 15.345C147.712 15.195 147.667 15.0725 147.577 14.9775C147.487 14.8825 147.364 14.81 147.209 14.76C147.054 14.705 146.872 14.665 146.662 14.64C146.457 14.615 146.237 14.5975 146.002 14.5875C145.772 14.5725 145.532 14.56 145.282 14.55C145.037 14.54 144.797 14.52 144.562 14.49C144.357 14.605 144.189 14.74 144.059 14.895C143.934 15.05 143.872 15.23 143.872 15.435C143.872 15.57 143.904 15.695 143.969 15.81C144.039 15.93 144.147 16.0325 144.292 16.1175C144.442 16.2025 144.634 16.2675 144.869 16.3125C145.104 16.3625 145.392 16.3875 145.732 16.3875C146.077 16.3875 146.374 16.36 146.624 16.305C146.874 16.255 147.079 16.1825 147.239 16.0875C147.404 15.9975 147.524 15.8875 147.599 15.7575C147.674 15.6325 147.712 15.495 147.712 15.345ZM149.557 7.5675V8.2575C149.557 8.4775 149.424 8.6125 149.159 8.6625L148.469 8.79C148.574 9.055 148.627 9.345 148.627 9.66C148.627 10.04 148.549 10.385 148.394 10.695C148.244 11 148.034 11.26 147.764 11.475C147.494 11.69 147.174 11.8575 146.804 11.9775C146.439 12.0925 146.044 12.15 145.619 12.15C145.469 12.15 145.324 12.1425 145.184 12.1275C145.044 12.1125 144.907 12.0925 144.772 12.0675C144.532 12.2125 144.412 12.375 144.412 12.555C144.412 12.71 144.482 12.825 144.622 12.9C144.767 12.97 144.957 13.02 145.192 13.05C145.427 13.08 145.694 13.1 145.994 13.11C146.294 13.115 146.602 13.13 146.917 13.155C147.232 13.18 147.539 13.225 147.839 13.29C148.139 13.35 148.407 13.4475 148.642 13.5825C148.877 13.7175 149.064 13.9025 149.204 14.1375C149.349 14.3675 149.422 14.665 149.422 15.03C149.422 15.37 149.337 15.7 149.167 16.02C149.002 16.34 148.759 16.625 148.439 16.875C148.124 17.125 147.734 17.325 147.269 17.475C146.809 17.63 146.284 17.7075 145.694 17.7075C145.114 17.7075 144.609 17.65 144.179 17.535C143.749 17.425 143.392 17.275 143.107 17.085C142.822 16.9 142.609 16.685 142.469 16.44C142.329 16.195 142.259 15.94 142.259 15.675C142.259 15.315 142.367 15.015 142.582 14.775C142.802 14.53 143.102 14.335 143.482 14.19C143.277 14.085 143.114 13.945 142.994 13.77C142.874 13.595 142.814 13.365 142.814 13.08C142.814 12.965 142.834 12.8475 142.874 12.7275C142.919 12.6025 142.982 12.48 143.062 12.36C143.147 12.24 143.252 12.1275 143.377 12.0225C143.502 11.9125 143.649 11.815 143.819 11.73C143.429 11.52 143.122 11.24 142.897 10.89C142.677 10.54 142.567 10.13 142.567 9.66C142.567 9.28 142.642 8.9375 142.792 8.6325C142.947 8.3225 143.159 8.06 143.429 7.845C143.704 7.625 144.027 7.4575 144.397 7.3425C144.772 7.2275 145.179 7.17 145.619 7.17C145.949 7.17 146.259 7.205 146.549 7.275C146.839 7.34 147.104 7.4375 147.344 7.5675H149.557ZM152.606 3.855V15H150.754V3.855H152.606ZM159.41 10.2675C159.41 10.0275 159.375 9.8025 159.305 9.5925C159.24 9.3775 159.14 9.19 159.005 9.03C158.87 8.87 158.697 8.745 158.487 8.655C158.282 8.56 158.042 8.5125 157.767 8.5125C157.232 8.5125 156.81 8.665 156.5 8.97C156.195 9.275 156 9.7075 155.915 10.2675H159.41ZM155.877 11.385C155.907 11.78 155.977 12.1225 156.087 12.4125C156.197 12.6975 156.342 12.935 156.522 13.125C156.702 13.31 156.915 13.45 157.16 13.545C157.41 13.635 157.685 13.68 157.985 13.68C158.285 13.68 158.542 13.645 158.757 13.575C158.977 13.505 159.167 13.4275 159.327 13.3425C159.492 13.2575 159.635 13.18 159.755 13.11C159.88 13.04 160 13.005 160.115 13.005C160.27 13.005 160.385 13.0625 160.46 13.1775L160.992 13.8525C160.787 14.0925 160.557 14.295 160.302 14.46C160.047 14.62 159.78 14.75 159.5 14.85C159.225 14.945 158.942 15.0125 158.652 15.0525C158.367 15.0925 158.09 15.1125 157.82 15.1125C157.285 15.1125 156.787 15.025 156.327 14.85C155.867 14.67 155.467 14.4075 155.127 14.0625C154.787 13.7125 154.52 13.2825 154.325 12.7725C154.13 12.2575 154.032 11.6625 154.032 10.9875C154.032 10.4625 154.117 9.97 154.287 9.51C154.457 9.045 154.7 8.6425 155.015 8.3025C155.335 7.9575 155.722 7.685 156.177 7.485C156.637 7.285 157.155 7.185 157.73 7.185C158.215 7.185 158.662 7.2625 159.072 7.4175C159.482 7.5725 159.835 7.8 160.13 8.1C160.425 8.395 160.655 8.76 160.82 9.195C160.99 9.625 161.075 10.1175 161.075 10.6725C161.075 10.9525 161.045 11.1425 160.985 11.2425C160.925 11.3375 160.81 11.385 160.64 11.385H155.877Z" fill="#131313"/>
<g clip-path="url(#clip0_410_228)">
<path d="M15.9914 10.1495C15.9914 9.49394 15.937 9.01559 15.8192 8.51953H8.15918V11.4782H12.6554C12.5648 12.2135 12.0753 13.3208 10.9875 14.0648L10.9722 14.1639L13.3941 15.9973L13.5619 16.0137C15.103 14.6229 15.9914 12.5766 15.9914 10.1495Z" fill="#4285F4"/>
<path d="M8.15941 17.9465C10.3622 17.9465 12.2114 17.2378 13.5622 16.0154L10.9877 14.0665C10.2987 14.536 9.37409 14.8638 8.15941 14.8638C6.00194 14.8638 4.17082 13.473 3.51807 11.5508L3.42239 11.5587L0.904028 13.4633L0.871094 13.5527C2.21271 16.1571 4.96848 17.9465 8.15941 17.9465Z" fill="#34A853"/>
<path d="M3.51818 11.5498C3.34594 11.0538 3.24627 10.5222 3.24627 9.97305C3.24627 9.4238 3.34594 8.89232 3.50912 8.39626L3.50455 8.29061L0.954628 6.35547L0.871199 6.39425C0.318256 7.47498 0.000976562 8.6886 0.000976562 9.97305C0.000976562 11.2575 0.318256 12.4711 0.871199 13.5518L3.51818 11.5498Z" fill="#FBBC05"/>
<path d="M8.15941 5.08269C9.69137 5.08269 10.7248 5.72934 11.314 6.26974L13.6165 4.07285C12.2024 2.7884 10.3622 2 8.15941 2C4.96848 2 2.21271 3.78937 0.871094 6.39371L3.50901 8.39573C4.17082 6.47347 6.00194 5.08269 8.15941 5.08269Z" fill="#EB4335"/>
</g>
<defs>
<clipPath id="clip0_410_228">
<rect width="16" height="16" fill="white" transform="translate(0 2)"/>
</clipPath>
</defs>
</svg>
